<mxfile host="65bd71144e">
    <diagram id="WEd2bbCfm0k-Jokv-YJr" name="PÃ¡gina-1">
        <mxGraphModel dx="1717" dy="409" grid="1" gridSize="10" guides="1" tooltips="1" connect="1" arrows="1" fold="1" page="1" pageScale="1" pageWidth="827" pageHeight="1169" math="0" shadow="0">
            <root>
                <mxCell id="0"/>
                <mxCell id="1" parent="0"/>
                <mxCell id="9" style="edgeStyle=none;html=1;entryX=0.5;entryY=0;entryDx=0;entryDy=0;" edge="1" parent="1" source="8" target="10">
                    <mxGeometry relative="1" as="geometry">
                        <mxPoint x="520" y="210" as="targetPoint"/>
                    </mxGeometry>
                </mxCell>
                <mxCell id="8" value="INICIO" style="ellipse;whiteSpace=wrap;html=1;fillColor=#99FF33;" vertex="1" parent="1">
                    <mxGeometry x="460" y="90" width="120" height="80" as="geometry"/>
                </mxCell>
                <mxCell id="12" style="edgeStyle=none;html=1;" edge="1" parent="1" source="10">
                    <mxGeometry relative="1" as="geometry">
                        <mxPoint x="520" y="330" as="targetPoint"/>
                    </mxGeometry>
                </mxCell>
                <mxCell id="10" value="OPCION X,Y" style="shape=parallelogram;perimeter=parallelogramPerimeter;whiteSpace=wrap;html=1;fixedSize=1;fillColor=#8000FF;" vertex="1" parent="1">
                    <mxGeometry x="460" y="220" width="120" height="60" as="geometry"/>
                </mxCell>
                <mxCell id="13" style="edgeStyle=none;html=1;exitX=0.5;exitY=0;exitDx=0;exitDy=0;" edge="1" parent="1" source="11">
                    <mxGeometry relative="1" as="geometry">
                        <mxPoint x="520" y="310" as="targetPoint"/>
                    </mxGeometry>
                </mxCell>
                <mxCell id="14" style="edgeStyle=none;html=1;" edge="1" parent="1" source="11">
                    <mxGeometry relative="1" as="geometry">
                        <mxPoint x="690" y="400" as="targetPoint"/>
                        <Array as="points">
                            <mxPoint x="690" y="360"/>
                        </Array>
                    </mxGeometry>
                </mxCell>
                <mxCell id="19" style="edgeStyle=none;html=1;exitX=0;exitY=0.5;exitDx=0;exitDy=0;" edge="1" parent="1" source="11">
                    <mxGeometry relative="1" as="geometry">
                        <mxPoint x="360" y="400" as="targetPoint"/>
                        <Array as="points">
                            <mxPoint x="360" y="360"/>
                        </Array>
                    </mxGeometry>
                </mxCell>
                <mxCell id="11" value="OPCIO==1" style="rhombus;whiteSpace=wrap;html=1;fillColor=#FF33FF;" vertex="1" parent="1">
                    <mxGeometry x="480" y="320" width="80" height="80" as="geometry"/>
                </mxCell>
                <mxCell id="85" style="edgeStyle=none;html=1;exitX=0.625;exitY=1;exitDx=0;exitDy=0;exitPerimeter=0;entryX=0.417;entryY=0;entryDx=0;entryDy=0;entryPerimeter=0;" edge="1" parent="1" source="15" target="88">
                    <mxGeometry relative="1" as="geometry">
                        <mxPoint x="530" y="1100" as="targetPoint"/>
                        <mxPoint x="710" y="500" as="sourcePoint"/>
                        <Array as="points">
                            <mxPoint x="700" y="460"/>
                            <mxPoint x="705" y="500"/>
                            <mxPoint x="705" y="1120"/>
                        </Array>
                    </mxGeometry>
                </mxCell>
                <mxCell id="15" value="Z=X+Y" style="rounded=0;whiteSpace=wrap;html=1;fillColor=#0000FF;" vertex="1" parent="1">
                    <mxGeometry x="630" y="400" width="120" height="60" as="geometry"/>
                </mxCell>
                <mxCell id="16" value="TRUE" style="text;html=1;align=center;verticalAlign=middle;resizable=0;points=[];autosize=1;strokeColor=none;fillColor=none;" vertex="1" parent="1">
                    <mxGeometry x="595" y="340" width="50" height="20" as="geometry"/>
                </mxCell>
                <mxCell id="21" style="edgeStyle=none;html=1;" edge="1" parent="1" source="20">
                    <mxGeometry relative="1" as="geometry">
                        <mxPoint x="480" y="510" as="targetPoint"/>
                        <Array as="points">
                            <mxPoint x="480" y="440"/>
                        </Array>
                    </mxGeometry>
                </mxCell>
                <mxCell id="24" style="edgeStyle=none;html=1;" edge="1" parent="1" source="20">
                    <mxGeometry relative="1" as="geometry">
                        <mxPoint x="240" y="520" as="targetPoint"/>
                        <Array as="points">
                            <mxPoint x="240" y="440"/>
                            <mxPoint x="240" y="500"/>
                        </Array>
                    </mxGeometry>
                </mxCell>
                <mxCell id="20" value="OPCION==2" style="rhombus;whiteSpace=wrap;html=1;fillColor=#FF33FF;" vertex="1" parent="1">
                    <mxGeometry x="320" y="400" width="80" height="80" as="geometry"/>
                </mxCell>
                <mxCell id="23" value="Z&amp;nbsp; = X+Y" style="rounded=0;whiteSpace=wrap;html=1;fillColor=#0000FF;" vertex="1" parent="1">
                    <mxGeometry x="430" y="510" width="120" height="60" as="geometry"/>
                </mxCell>
                <mxCell id="26" style="edgeStyle=none;html=1;" edge="1" parent="1" source="25">
                    <mxGeometry relative="1" as="geometry">
                        <mxPoint x="360" y="600" as="targetPoint"/>
                        <Array as="points">
                            <mxPoint x="360" y="560"/>
                        </Array>
                    </mxGeometry>
                </mxCell>
                <mxCell id="28" style="edgeStyle=none;html=1;" edge="1" parent="1" source="25">
                    <mxGeometry relative="1" as="geometry">
                        <mxPoint x="100" y="610" as="targetPoint"/>
                        <Array as="points">
                            <mxPoint x="100" y="560"/>
                            <mxPoint x="100" y="580"/>
                            <mxPoint x="100" y="600"/>
                        </Array>
                    </mxGeometry>
                </mxCell>
                <mxCell id="25" value="OPCION==3" style="rhombus;whiteSpace=wrap;html=1;fillColor=#FF33FF;" vertex="1" parent="1">
                    <mxGeometry x="200" y="520" width="80" height="80" as="geometry"/>
                </mxCell>
                <mxCell id="27" value="Z =X-Y" style="rounded=0;whiteSpace=wrap;html=1;fillColor=#0000FF;" vertex="1" parent="1">
                    <mxGeometry x="300" y="600" width="120" height="60" as="geometry"/>
                </mxCell>
                <mxCell id="30" style="edgeStyle=none;html=1;" edge="1" parent="1" source="29">
                    <mxGeometry relative="1" as="geometry">
                        <mxPoint x="230" y="700" as="targetPoint"/>
                        <Array as="points">
                            <mxPoint x="230" y="650"/>
                            <mxPoint x="230" y="700"/>
                        </Array>
                    </mxGeometry>
                </mxCell>
                <mxCell id="68" style="edgeStyle=none;html=1;exitX=0;exitY=0.5;exitDx=0;exitDy=0;" edge="1" parent="1" source="29" target="69">
                    <mxGeometry relative="1" as="geometry">
                        <mxPoint y="600" as="targetPoint"/>
                        <Array as="points">
                            <mxPoint x="-60" y="590"/>
                        </Array>
                    </mxGeometry>
                </mxCell>
                <mxCell id="29" value="OPCION==3" style="rhombus;whiteSpace=wrap;html=1;fillColor=#FF33FF;" vertex="1" parent="1">
                    <mxGeometry x="60" y="610" width="90" height="80" as="geometry"/>
                </mxCell>
                <mxCell id="31" value="Z= X*Y" style="rounded=0;whiteSpace=wrap;html=1;fillColor=#0000FF;" vertex="1" parent="1">
                    <mxGeometry x="170" y="700" width="120" height="60" as="geometry"/>
                </mxCell>
                <mxCell id="35" style="edgeStyle=none;html=1;" edge="1" parent="1">
                    <mxGeometry relative="1" as="geometry">
                        <mxPoint x="100" y="780" as="targetPoint"/>
                        <mxPoint x="6" y="720" as="sourcePoint"/>
                        <Array as="points">
                            <mxPoint x="100" y="720"/>
                        </Array>
                    </mxGeometry>
                </mxCell>
                <mxCell id="45" style="edgeStyle=none;html=1;" edge="1" parent="1" source="36">
                    <mxGeometry relative="1" as="geometry">
                        <mxPoint x="-200" y="760" as="targetPoint"/>
                        <Array as="points">
                            <mxPoint x="-200" y="720"/>
                        </Array>
                    </mxGeometry>
                </mxCell>
                <mxCell id="36" value="OPCION==4 AND&amp;nbsp; Y !=0" style="rhombus;whiteSpace=wrap;html=1;fillColor=#FF33FF;" vertex="1" parent="1">
                    <mxGeometry x="-85" y="670" width="100" height="90" as="geometry"/>
                </mxCell>
                <mxCell id="40" style="edgeStyle=none;html=1;exitX=0.492;exitY=0.863;exitDx=0;exitDy=0;exitPerimeter=0;" edge="1" parent="1" source="38">
                    <mxGeometry relative="1" as="geometry">
                        <mxPoint x="105" y="910" as="targetPoint"/>
                        <Array as="points">
                            <mxPoint x="105" y="910"/>
                        </Array>
                    </mxGeometry>
                </mxCell>
                <mxCell id="38" value="NUMERADOR ES = 0 Y" style="shape=document;whiteSpace=wrap;html=1;boundedLbl=1;fillColor=#0000FF;" vertex="1" parent="1">
                    <mxGeometry x="45" y="780" width="120" height="80" as="geometry"/>
                </mxCell>
                <mxCell id="39" value="TRUE" style="text;html=1;align=center;verticalAlign=middle;resizable=0;points=[];autosize=1;strokeColor=none;fillColor=none;" vertex="1" parent="1">
                    <mxGeometry x="15" y="700" width="50" height="20" as="geometry"/>
                </mxCell>
                <mxCell id="41" value="NO SE PUEDE REALIZAR LA OPCION" style="shape=document;whiteSpace=wrap;html=1;boundedLbl=1;fillColor=#0000FF;" vertex="1" parent="1">
                    <mxGeometry x="50" y="910" width="120" height="80" as="geometry"/>
                </mxCell>
                <mxCell id="48" value="FALSE" style="text;html=1;align=center;verticalAlign=middle;resizable=0;points=[];autosize=1;strokeColor=none;fillColor=none;" vertex="1" parent="1">
                    <mxGeometry x="-165" y="700" width="50" height="20" as="geometry"/>
                </mxCell>
                <mxCell id="50" style="edgeStyle=none;html=1;exitX=1;exitY=0.5;exitDx=0;exitDy=0;" edge="1" parent="1" source="49">
                    <mxGeometry relative="1" as="geometry">
                        <mxPoint x="-80" y="840" as="targetPoint"/>
                        <Array as="points">
                            <mxPoint x="-80" y="800"/>
                        </Array>
                    </mxGeometry>
                </mxCell>
                <mxCell id="52" style="edgeStyle=none;html=1;exitX=0;exitY=0.5;exitDx=0;exitDy=0;" edge="1" parent="1" source="49">
                    <mxGeometry relative="1" as="geometry">
                        <mxPoint x="-320" y="840" as="targetPoint"/>
                        <Array as="points">
                            <mxPoint x="-320" y="800"/>
                        </Array>
                    </mxGeometry>
                </mxCell>
                <mxCell id="49" value="OPCION==5" style="rhombus;whiteSpace=wrap;html=1;fillColor=#FF33FF;" vertex="1" parent="1">
                    <mxGeometry x="-245" y="760" width="80" height="80" as="geometry"/>
                </mxCell>
                <mxCell id="51" value="Z= POW(X,Y)" style="rounded=0;whiteSpace=wrap;html=1;fillColor=#0000FF;" vertex="1" parent="1">
                    <mxGeometry x="-140" y="840" width="120" height="60" as="geometry"/>
                </mxCell>
                <mxCell id="57" style="edgeStyle=none;html=1;" edge="1" parent="1" source="53">
                    <mxGeometry relative="1" as="geometry">
                        <mxPoint x="-200" y="920" as="targetPoint"/>
                        <Array as="points">
                            <mxPoint x="-200" y="880"/>
                        </Array>
                    </mxGeometry>
                </mxCell>
                <mxCell id="62" style="edgeStyle=none;html=1;exitX=0;exitY=0.5;exitDx=0;exitDy=0;" edge="1" parent="1" source="53">
                    <mxGeometry relative="1" as="geometry">
                        <mxPoint x="-470" y="940" as="targetPoint"/>
                        <Array as="points">
                            <mxPoint x="-470" y="880"/>
                        </Array>
                    </mxGeometry>
                </mxCell>
                <mxCell id="53" value="OPCION==6 AND X &amp;gt;0&amp;nbsp;" style="rhombus;whiteSpace=wrap;html=1;fillColor=#FF33FF;" vertex="1" parent="1">
                    <mxGeometry x="-360" y="840" width="90" height="80" as="geometry"/>
                </mxCell>
                <mxCell id="54" value="TRUE" style="text;html=1;align=center;verticalAlign=middle;resizable=0;points=[];autosize=1;strokeColor=none;fillColor=none;" vertex="1" parent="1">
                    <mxGeometry x="-155" y="780" width="50" height="20" as="geometry"/>
                </mxCell>
                <mxCell id="55" value="FALSE" style="text;html=1;align=center;verticalAlign=middle;resizable=0;points=[];autosize=1;strokeColor=none;fillColor=none;" vertex="1" parent="1">
                    <mxGeometry x="-315" y="780" width="50" height="20" as="geometry"/>
                </mxCell>
                <mxCell id="58" value="TRUE" style="text;html=1;align=center;verticalAlign=middle;resizable=0;points=[];autosize=1;strokeColor=none;fillColor=none;" vertex="1" parent="1">
                    <mxGeometry x="-250" y="860" width="50" height="20" as="geometry"/>
                </mxCell>
                <mxCell id="61" value="Z = LOG (X)" style="rounded=0;whiteSpace=wrap;html=1;fillColor=#0000FF;" vertex="1" parent="1">
                    <mxGeometry x="-260" y="920" width="120" height="60" as="geometry"/>
                </mxCell>
                <mxCell id="63" value="FALSE" style="text;html=1;align=center;verticalAlign=middle;resizable=0;points=[];autosize=1;strokeColor=none;fillColor=none;" vertex="1" parent="1">
                    <mxGeometry x="-435" y="860" width="50" height="20" as="geometry"/>
                </mxCell>
                <mxCell id="65" style="edgeStyle=none;html=1;exitX=0.5;exitY=1;exitDx=0;exitDy=0;" edge="1" parent="1" source="64">
                    <mxGeometry relative="1" as="geometry">
                        <mxPoint x="-465" y="1080" as="targetPoint"/>
                    </mxGeometry>
                </mxCell>
                <mxCell id="64" value="OPCION==6 AND X &amp;lt;= O" style="rhombus;whiteSpace=wrap;html=1;fillColor=#FF33FF;" vertex="1" parent="1">
                    <mxGeometry x="-510" y="940" width="90" height="90" as="geometry"/>
                </mxCell>
                <mxCell id="83" style="edgeStyle=none;html=1;" edge="1" parent="1" source="66">
                    <mxGeometry relative="1" as="geometry">
                        <mxPoint x="550" y="1120" as="targetPoint"/>
                    </mxGeometry>
                </mxCell>
                <mxCell id="66" value="LA OPERACION NO SE PUEDE REALIZAR" style="rounded=0;whiteSpace=wrap;html=1;fillColor=#0066CC;" vertex="1" parent="1">
                    <mxGeometry x="-510" y="1080" width="120" height="60" as="geometry"/>
                </mxCell>
                <mxCell id="71" style="edgeStyle=none;html=1;exitX=1;exitY=0.5;exitDx=0;exitDy=0;" edge="1" parent="1" source="69" target="72">
                    <mxGeometry relative="1" as="geometry">
                        <mxPoint x="40" y="600" as="targetPoint"/>
                        <mxPoint x="-10" y="560" as="sourcePoint"/>
                        <Array as="points">
                            <mxPoint x="40" y="560"/>
                        </Array>
                    </mxGeometry>
                </mxCell>
                <mxCell id="73" style="edgeStyle=none;html=1;exitX=0.5;exitY=1;exitDx=0;exitDy=0;entryX=0.5;entryY=0;entryDx=0;entryDy=0;" edge="1" parent="1" source="69" target="36">
                    <mxGeometry relative="1" as="geometry">
                        <mxPoint x="-160" y="600" as="targetPoint"/>
                        <Array as="points">
                            <mxPoint x="-130" y="600"/>
                        </Array>
                    </mxGeometry>
                </mxCell>
                <mxCell id="69" value="OPCION==4&lt;br&gt;AND Y!=0" style="rhombus;whiteSpace=wrap;html=1;fillColor=#FF33FF;" vertex="1" parent="1">
                    <mxGeometry x="-120" y="520" width="90" height="80" as="geometry"/>
                </mxCell>
                <mxCell id="72" value="Z=X/Y" style="rounded=0;whiteSpace=wrap;html=1;fillColor=#0000FF;" vertex="1" parent="1">
                    <mxGeometry x="10" y="580" width="75" height="40" as="geometry"/>
                </mxCell>
                <mxCell id="74" value="TRUE" style="text;html=1;align=center;verticalAlign=middle;resizable=0;points=[];autosize=1;strokeColor=none;fillColor=none;" vertex="1" parent="1">
                    <mxGeometry x="-30" y="540" width="50" height="20" as="geometry"/>
                </mxCell>
                <mxCell id="75" value="FALSE" style="text;html=1;align=center;verticalAlign=middle;resizable=0;points=[];autosize=1;strokeColor=none;fillColor=none;" vertex="1" parent="1">
                    <mxGeometry x="-135" y="580" width="50" height="20" as="geometry"/>
                </mxCell>
                <mxCell id="76" value="" style="endArrow=none;html=1;entryX=0.5;entryY=1;entryDx=0;entryDy=0;" edge="1" parent="1" target="61">
                    <mxGeometry width="50" height="50" relative="1" as="geometry">
                        <mxPoint x="-200" y="1140" as="sourcePoint"/>
                        <mxPoint x="-260" y="1090" as="targetPoint"/>
                    </mxGeometry>
                </mxCell>
                <mxCell id="77" value="" style="endArrow=none;html=1;entryX=0.55;entryY=0.85;entryDx=0;entryDy=0;entryPerimeter=0;" edge="1" parent="1" target="41">
                    <mxGeometry width="50" height="50" relative="1" as="geometry">
                        <mxPoint x="116" y="1110" as="sourcePoint"/>
                        <mxPoint x="140" y="1020" as="targetPoint"/>
                    </mxGeometry>
                </mxCell>
                <mxCell id="78" value="" style="endArrow=none;html=1;" edge="1" parent="1" target="51">
                    <mxGeometry width="50" height="50" relative="1" as="geometry">
                        <mxPoint x="-80" y="1120" as="sourcePoint"/>
                        <mxPoint x="-20" y="940" as="targetPoint"/>
                    </mxGeometry>
                </mxCell>
                <mxCell id="79" value="" style="endArrow=none;html=1;entryX=0.5;entryY=1;entryDx=0;entryDy=0;" edge="1" parent="1" target="31">
                    <mxGeometry width="50" height="50" relative="1" as="geometry">
                        <mxPoint x="230" y="1110" as="sourcePoint"/>
                        <mxPoint x="280" y="820" as="targetPoint"/>
                    </mxGeometry>
                </mxCell>
                <mxCell id="80" value="" style="endArrow=none;html=1;entryX=0.5;entryY=1;entryDx=0;entryDy=0;" edge="1" parent="1" target="27">
                    <mxGeometry width="50" height="50" relative="1" as="geometry">
                        <mxPoint x="360" y="1110" as="sourcePoint"/>
                        <mxPoint x="410" y="940" as="targetPoint"/>
                    </mxGeometry>
                </mxCell>
                <mxCell id="81" value="" style="endArrow=none;html=1;entryX=0.608;entryY=1.05;entryDx=0;entryDy=0;entryPerimeter=0;" edge="1" parent="1" target="23">
                    <mxGeometry width="50" height="50" relative="1" as="geometry">
                        <mxPoint x="503" y="1120" as="sourcePoint"/>
                        <mxPoint x="560" y="660" as="targetPoint"/>
                    </mxGeometry>
                </mxCell>
                <mxCell id="88" value="FIN" style="ellipse;whiteSpace=wrap;html=1;fillColor=#CC0000;" vertex="1" parent="1">
                    <mxGeometry x="490" y="1120" width="120" height="80" as="geometry"/>
                </mxCell>
            </root>
        </mxGraphModel>
    </diagram>
</mxfile>